<?xml version="1.0" standalone="no"?>
<!DOCTYPE svg PUBLIC "-//W3C//DTD SVG 20010904//EN"
 "http://www.w3.org/TR/2001/REC-SVG-20010904/DTD/svg10.dtd">
<svg version="1.0" xmlns="http://www.w3.org/2000/svg"
 width="109.000000pt" height="109.000000pt" viewBox="0 0 109.000000 109.000000"
 preserveAspectRatio="xMidYMid meet">
<metadata>
Created by potrace 1.11, written by Peter Selinger 2001-2013
</metadata>
<g transform="translate(0.000000,109.000000) scale(0.100000,-0.100000)"
fill="#000000" stroke="none">
<path d="M612 986 c-19 -5 -56 -30 -84 -55 l-51 -46 -69 3 c-59 2 -68 0 -69
-15 -2 -32 2 -45 21 -65 18 -20 19 -20 48 13 17 19 34 30 39 26 4 -5 -5 -19
-21 -32 -35 -28 -43 -80 -16 -98 16 -10 16 -13 -3 -61 -11 -28 -27 -59 -35
-68 -8 -9 -11 -22 -6 -29 4 -8 3 -10 -4 -5 -7 4 -12 1 -12 -8 0 -23 0 -22 -20
-63 -13 -28 -15 -40 -7 -45 8 -5 6 -8 -5 -8 -10 0 -18 -5 -18 -11 0 -6 -6 -17
-12 -24 -30 -33 -35 -42 -32 -58 1 -9 -2 -17 -7 -17 -6 0 -7 -5 -3 -11 4 -8 9
-7 15 2 4 7 5 17 2 23 -4 6 1 7 13 2 10 -4 15 -4 11 0 -4 4 0 16 10 26 9 11
11 18 5 18 -7 0 -12 -5 -12 -12 0 -6 -3 -8 -6 -5 -4 4 8 20 26 37 19 18 30 36
26 45 -3 8 -1 15 5 15 6 0 7 5 4 10 -12 19 4 10 30 -17 31 -34 31 -36 -1 -79
-15 -19 -23 -34 -19 -34 5 0 1 -8 -7 -17 -24 -29 -28 -40 -14 -40 9 0 12 7 8
16 -5 14 -4 14 13 1 11 -9 16 -10 11 -2 -4 7 -1 15 9 18 14 6 14 8 -2 20 -16
12 -16 12 6 7 17 -4 22 -3 17 6 -4 6 -12 9 -17 6 -5 -3 -6 1 -2 10 4 12 8 13
13 5 5 -9 9 -9 14 -1 4 6 1 11 -6 11 -10 0 -9 3 2 10 9 5 19 5 26 -1 7 -5 16
-8 20 -7 5 2 25 -10 45 -25 43 -32 71 -28 69 12 -4 61 1 73 61 132 56 56 63
60 103 58 23 -2 48 1 54 5 7 4 36 -6 67 -23 30 -17 59 -31 64 -31 5 0 23 12
39 28 16 15 40 34 53 43 23 16 23 17 6 43 -21 31 -49 45 -55 28 -8 -25 -35
-42 -65 -42 -52 0 -62 12 -41 46 10 16 22 32 27 35 25 18 9 127 -27 174 -34
45 -37 61 -16 85 22 25 16 50 -11 50 -17 0 -23 -10 -21 -31 1 -4 -7 -14 -17
-23 -24 -22 -64 -12 -85 19 -18 28 -42 34 -84 21z m-114 -319 c8 -10 3 -29
-22 -77 -28 -54 -41 -67 -76 -82 l-42 -18 21 32 c12 18 32 53 43 78 22 43 47
78 59 79 4 1 11 -5 17 -12z m77 -67 c0 -13 -62 -57 -70 -48 -2 2 5 18 17 36
21 33 53 40 53 12z m318 -24 c37 1 44 -9 28 -34 -7 -11 -16 -10 -47 7 -57 30
-75 44 -44 34 14 -4 42 -7 63 -7z m-263 -7 c0 -15 -62 -70 -109 -97 -32 -18
-41 -19 -41 -8 0 15 28 39 100 86 52 34 50 33 50 19z"/>
<path d="M325 262 c-10 -7 -18 -32 -10 -32 2 0 9 9 15 20 12 22 11 24 -5 12z"/>
</g>
</svg>
